PathFileType	4	(X/Y/Z)	./resultDataOpenSim/trcMotMarkerGrf/sub10/qtm-14-01.trc
DataRate	CameraRate	NumFrames	NumMarkers	Units	OrigDataRate	OrigDataStartFrame	OrigNumFrames
250.000000	250.000000	9	24	m	250.000000	57	454
Frame#	Time	L.Toe.Tip			R.Toe.Tip			L.Ankle.Lat			R.Ankle.Lat			L.Ankle.Med			R.Ankle.Med			L.Heel			R.Heel			L.Knee.Lat			R.Knee.Lat			L.Knee.Med			R.Knee.Med			L.Thigh.Upper			R.Thigh.Upper			L.ASIS			R.ASIS			V.Sacral			L.Acromium			R.Acromium			C7			L.Elbow			R.Elbow			L.Wrist.Lat			R.Wrist.Lat
		X1	Y1	Z1	X2	Y2	Z2	X3	Y3	Z3	X4	Y4	Z4	X5	Y5	Z5	X6	Y6	Z6	X7	Y7	Z7	X8	Y8	Z8	X9	Y9	Z9	X10	Y10	Z10	X11	Y11	Z11	X12	Y12	Z12	X13	Y13	Z13	X14	Y14	Z14	X15	Y15	Z15	X16	Y16	Z16	X17	Y17	Z17	X18	Y18	Z18	X19	Y19	Z19	X20	Y20	Z20	X21	Y21	Z21	X22	Y22	Z22	X23	Y23	Z23	X24	Y24	Z24

57	0.224	-1.3841329	0.07952837	-0.14948582	-0.73381701	0.038594354	0.0028503275	-1.377031	0.21383054	-0.19127805	-0.86687946	0.052562086	0.063435741	-1.352192	0.21288898	-0.1109482	-0.8602066	0.079871472	-0.023564889	-1.4213088	0.26532848	-0.14772321	-0.92481381	0.028488142	0.023313171	-1.0472715	0.39829051	-0.20867511	-0.82483722	0.45054649	0.081850569	-1.0389484	0.36490405	-0.08963982	-0.83493456	0.45645773	-0.045938218	-0.98951031	0.77285885	-0.23205679	-0.93784747	0.85321928	0.14384803	-0.92216639	0.88765205	-0.1769342	-0.88870309	0.9327879	0.058296051	-1.1030607	0.93337766	-0.037323888	-0.92110531	1.3841448	-0.20515197	-0.9756367	1.3812833	0.10802754	-1.0278207	1.4140761	-0.061760889	-1.0337745	1.0647252	-0.25411503	-1.1437311	1.0875493	0.13832095	-0.91306253	0.85093055	-0.31520538	-1.1465045	0.86155147	0.22604265
58	0.228	-1.3687045	0.081426746	-0.15012127	-0.73369204	0.038532286	0.0027476736	-1.3637818	0.2161498	-0.19079107	-0.86690196	0.052553897	0.063463474	-1.3389328	0.21523678	-0.11053208	-0.85987544	0.079895831	-0.023651403	-1.4092706	0.26671324	-0.14701661	-0.92485132	0.02851876	0.023310619	-1.0336125	0.39913155	-0.20843511	-0.82293933	0.45032814	0.082282651	-1.0254187	0.36604414	-0.089245124	-0.83264766	0.45665318	-0.045509748	-0.98181438	0.77403023	-0.23174319	-0.93218851	0.85394629	0.14392245	-0.91587329	0.88947525	-0.17706475	-0.88233961	0.93362442	0.05849183	-1.0967993	0.93464774	-0.037258874	-0.91497901	1.3853888	-0.2051011	-0.96868013	1.3824248	0.10822272	-1.0213372	1.415563	-0.061122414	-1.0279327	1.0660215	-0.25336585	-1.1357541	1.0881423	0.13965096	-0.90757899	0.85180171	-0.31400765	-1.1365286	0.86207284	0.22728117
59	0.232	-1.3530155	0.083146959	-0.15081077	-0.73357393	0.038473938	0.0026579916	-1.3503576	0.21828777	-0.19026425	-0.86691847	0.052546969	0.063480798	-1.3253386	0.21737607	-0.11012038	-0.85956452	0.079921705	-0.02373565	-1.3968779	0.26789651	-0.14631551	-0.92487862	0.028554475	0.023276083	-1.0202069	0.40020048	-0.20805941	-0.82112919	0.45010408	0.082683699	-1.0112485	0.36733905	-0.08903669	-0.83044248	0.45689095	-0.045050242	-0.97428773	0.77533992	-0.23146722	-0.92669215	0.8546244	0.14394146	-0.90965565	0.89130077	-0.17727015	-0.87610007	0.9344765	0.058704485	-1.0905278	0.93601979	-0.037315422	-0.9088858	1.3866698	-0.20505687	-0.96173602	1.3836258	0.10842689	-1.0148979	1.4170799	-0.060531231	-1.0221267	1.0673505	-0.2526154	-1.1277965	1.0887329	0.14098521	-0.90214408	0.85271776	-0.31280362	-1.1264459	0.86261228	0.22851924
60	0.236	-1.3371214	0.084662234	-0.15153527	-0.73347664	0.038423027	0.0025901956	-1.336765	0.22017262	-0.18971375	-0.86693285	0.052542641	0.063490234	-1.3115079	0.21922868	-0.10969557	-0.85929315	0.079949265	-0.023805689	-1.3841711	0.26885083	-0.14561479	-0.92488282	0.028599288	0.023186046	-1.006983	0.40151502	-0.20764752	-0.81935004	0.44987776	0.083021457	-0.99615737	0.3688244	-0.08908571	-0.82810905	0.45712532	-0.044740042	-0.96695218	0.77679405	-0.23123851	-0.92137001	0.8552629	0.14392103	-0.90352647	0.89311667	-0.17753568	-0.86995777	0.93535434	0.058951505	-1.0842602	0.93747222	-0.037465752	-0.90283345	1.3879856	-0.20501298	-0.95466776	1.3849043	0.10865932	-1.0084946	1.4186015	-0.059995963	-1.0163798	1.0687236	-0.25189995	-1.1198679	1.0893218	0.14231158	-0.89677345	0.85368177	-0.31159724	-1.1162353	0.86316957	0.22977918
61	0.24	-1.3210581	0.0859657	-0.15226539	-0.73341494	0.038386595	0.0025530777	-1.3229997	0.22174543	-0.18916609	-0.86694942	0.052541066	0.063493186	-1.2975255	0.22075293	-0.10924116	-0.85908329	0.079981025	-0.023851324	-1.3712147	0.26955139	-0.14489711	-0.92485196	0.028662242	0.023026666	-0.99384533	0.40303125	-0.20727061	-0.81756664	0.44966086	0.083289776	-0.98062634	0.37046006	-0.089243146	-0.82557679	0.45731905	-0.044630436	-0.95982116	0.77839242	-0.23105682	-0.91621819	0.85588357	0.14388791	-0.89748998	0.89492982	-0.17784427	-0.8639171	0.93626465	0.059241352	-1.0780117	0.93898471	-0.037672687	-0.89682399	1.3893426	-0.20496785	-0.94754729	1.3862497	0.10892405	-1.0021225	1.4201205	-0.059524919	-1.0107509	1.0701458	-0.25131434	-1.1119732	1.0899073	0.1436271	-0.89147915	0.85470608	-0.31039769	-1.1059189	0.86375508	0.23107296
62	0.244	-1.30481	0.087072977	-0.15298495	-0.73339867	0.038370663	0.0025518411	-1.3090737	0.22299063	-0.18862569	-0.86697319	0.052541807	0.063491176	-1.2834361	0.2219483	-0.10875513	-0.85895337	0.080021093	-0.023868892	-1.3580562	0.26998549	-0.14414025	-0.92480556	0.028750948	0.022843967	-0.98073933	0.40464892	-0.20686167	-0.81580776	0.44946616	0.083515141	-0.96574437	0.37211513	-0.089176551	-0.82302662	0.45746663	-0.044573903	-0.95289612	0.78012483	-0.23091101	-0.91119683	0.85651642	0.14388316	-0.89153061	0.8967455	-0.1781843	-0.857987	0.93721339	0.059577398	-1.0718008	0.94052827	-0.037914003	-0.89085109	1.3907461	-0.20492144	-0.94048784	1.3876414	0.10922399	-0.9957852	1.421639	-0.059126038	-1.0053025	1.0716107	-0.25095308	-1.104115	1.090488	0.14493392	-0.88626276	0.85579869	-0.30920999	-1.0955276	0.86438265	0.23239732
63	0.248	-1.2883153	0.088007	-0.15369392	-0.73343047	0.038376731	0.0025871184	-1.2950296	0.22393913	-0.18807119	-0.86701002	0.052544697	0.063487131	-1.2692585	0.22284482	-0.10824003	-0.85891312	0.0800719	-0.023859178	-1.3447298	0.27014752	-0.14332308	-0.92480872	0.02885264	0.022760428	-0.96762644	0.40629291	-0.2063379	-0.81416006	0.44929409	0.083751395	-0.95208218	0.37368997	-0.088708872	-0.82066741	0.45757887	-0.044418878	-0.94617787	0.78197064	-0.23078969	-0.90626874	0.85718955	0.14393443	-0.88560973	0.89855542	-0.17855074	-0.85216571	0.93820431	0.059959745	-1.0656504	0.94206675	-0.038203562	-0.88490658	1.3921907	-0.20487218	-0.93351209	1.3890727	0.10956042	-0.98948755	1.4231614	-0.058799268	-1.000022	1.0731081	-0.25079082	-1.096291	1.0910663	0.14623696	-0.88112055	0.85695156	-0.30803069	-1.085057	0.86506266	0.23374714
64	0.252	-1.2715243	0.088778871	-0.15440254	-0.73350488	0.0384009	0.0026557799	-1.2809154	0.22463825	-0.18747478	-0.86706547	0.052550752	0.063483349	-1.254987	0.22348132	-0.10769238	-0.85896015	0.080131091	-0.023823683	-1.3312747	0.2700277	-0.14243227	-0.92490406	0.028933829	0.022846204	-0.95453247	0.40795809	-0.20569598	-0.81268913	0.44913814	0.084042684	-0.93929327	0.37521661	-0.087961535	-0.81853702	0.45765737	-0.044146469	-0.93966263	0.78389918	-0.23069043	-0.90143718	0.85791697	0.14403127	-0.87969028	0.90034476	-0.1789334	-0.84644381	0.93923722	0.060388422	-1.059589	0.94355798	-0.038592735	-0.87899579	1.3936618	-0.20481811	-0.92660551	1.3905421	0.10991873	-0.983229	1.4246834	-0.058532601	-0.99479484	1.0746325	-0.25065243	-1.0884903	1.0916458	0.14754713	-0.87604805	0.85814675	-0.30685318	-1.0744556	0.8658026	0.23513366
65	0.256	-1.254461	0.089389225	-0.15512822	-0.73361047	0.038435825	0.0027514771	-1.266747	0.22511835	-0.18681946	-0.86713698	0.05256195	0.063478143	-1.2405956	0.2238839	-0.10710834	-0.85908086	0.080194423	-0.023765127	-1.3177332	0.26960598	-0.14146439	-0.92503744	0.028971277	0.022991823	-0.94155505	0.40966716	-0.20494967	-0.81137869	0.4490004	0.084399264	-0.92682883	0.37679877	-0.08713768	-0.81653447	0.45769447	-0.04380711	-0.93333445	0.78587536	-0.23061461	-0.89672897	0.85869086	0.144148	-0.87377911	0.902105	-0.17931485	-0.84080826	0.94030886	0.060869656	-1.0536424	0.94496241	-0.039131502	-0.87315321	1.3951502	-0.20475993	-0.91978605	1.3920384	0.11026736	-0.97700181	1.4261853	-0.058312917	-0.98950462	1.076181	-0.25037075	-1.0806988	1.0922262	0.14888258	-0.87104012	0.85937114	-0.30567336	-1.063669	0.86660578	0.23656946
